# xmcd
#
# Track frame offsets:
#	150
#	31695
#	63770
#	108055
#	121695
#	130220
#	131295
#	133050
#	136235
#	142345
#	145475
#	148585
#	152975
#	157210
#	162180
#	164040
#	187330
#	206505
#	226070
#	230525
#	249935
#	271160
#	293005
#	311885
#	327885
#	348860
#
# Disc length: 4784
#
# Revision: 1
# Processed by: cddbd v1.5.1PL0 Copyright (c) Steve Scherf et al.
# Submitted via: ExactAudioCopy v0.95a5
# Normalized: r0:TDELIM( - )
#
DISCID=8412ae1a
DTITLE=Various Artist - Duane Allman:  The Sessions  [CD5]
DYEAR=2004
DGENRE=Southern Rock
TTITLE0=12-Bar Blues Jam - Duane Allman with Delaney and Bonnie and King Curtis
TTITLE1=Sugar Magnolia - Grateful Dead  (Fillmore West 1970)
TTITLE2=WABC-NYC Interview Segment #1 - Duane Allman (1970)
TTITLE3=WABC-NYC Interview Segment #2 - Duane Allman (1970)
TTITLE4=WABC-NYC Interview Segment #3 - Duane Allman (1970)
TTITLE5=WABC-NYC Interview Segment #4 - Duane Allman (1970)
TTITLE6=WABC-NYC Interview Segment #5 - Duane Allman (1970)
TTITLE7=WABC-NYC Interview Segment #6 - Duane Allman (1970)
TTITLE8=WABC-NYC Interview Segment #7 - Duane Allman (1970)
TTITLE9=WABC-NYC Interview Segment #8 - Duane Allman (1970)
TTITLE10=WABC-NYC Interview Segment #9 - Duane Allman (1970)
TTITLE11=WABC-NYC Interview Segment #10 - Duane Allman (1970)
TTITLE12=WABC-NYC Interview Segment #11 - Duane Allman (1970)
TTITLE13=WABC-NYC Interview Segment #12 - Duane Allman (1970)
TTITLE14=WABC-NYC Interview Segment #13 - Duane Allman (1970)
TTITLE15=WBCN-Boston, MA - Duane Allman with Jerry Garcia and Bob Weir
TTITLE16=Statesboro Blues - The Allman Brothers Band  (February 1970 at The Fillmore East, NYC)
TTITLE17=Statesboro Blues - The Allman Brothers Band  (December 12-13, 1970 at Washington, DC)
TTITLE18=Statesboro Blues - The Allman Brothers Band  (June 27, 1971 At The Fillmore East, NYC)
TTITLE19=Statesboro Blues - The Allman Brothers Band  (March 19, 1971 At The Warehouse, New Orleans, LA)
TTITLE20=Statesboro Blues - The Allman Brothers Band  (September 16, 1971 At The Warehouse, New Orleans, LA)
TTITLE21=Statesboro Blues (rough recording) - The Allman Brothers Band  (March 13, 1971 At The Fillmore East, NYC)
TTITLE22=Statesboro Blues (rough recording) - The Allman Brothers Band  (January 31, 1971 At The Fillmore East, NYC)
TTITLE23=Statesboro Blues (rough recording) - The Allman Brothers Band  (unknown recording time and place)
TTITLE24=Statesboro Blues (rough recording with praise for Taj Mahal) - The Allman Brothers Band  (unknown recording time and place)
TTITLE25=Little Martha - The Allman Brothers Band
EXTD=
EXTT0=
EXTT1=
EXTT2=
EXTT3=
EXTT4=
EXTT5=
EXTT6=
EXTT7=
EXTT8=
EXTT9=
EXTT10=
EXTT11=
EXTT12=
EXTT13=
EXTT14=
EXTT15=
EXTT16=
EXTT17=
EXTT18=
EXTT19=
EXTT20=
EXTT21=
EXTT22=
EXTT23=
EXTT24=
EXTT25=
PLAYORDER=
